<?xml version="1.0" encoding="utf-8"?>
<!-- Generator: Adobe Illustrator 25.2.0, SVG Export Plug-In . SVG Version: 6.00 Build 0)  -->
<svg version="1.1" id="圖層_1" xmlns="http://www.w3.org/2000/svg" xmlns:xlink="http://www.w3.org/1999/xlink" x="0px" y="0px"
	 viewBox="0 0 141.3 141.3" style="enable-background:new 0 0 141.3 141.3;" xml:space="preserve">
<style type="text/css">
	.st0{fill:#C6D9EB;}
	.st1{fill:#E36106;}
</style>
<g>
	<path class="st0" d="M0,111.3V30C0,13.5,13.5,0,30,0l81.3,0c16.5,0,30,13.5,30,30v81.3c0,16.5-13.5,30-30,30H30
		C13.5,141.3,0,127.8,0,111.3z"/>
</g>
<g>
	<path class="st1" d="M72.3,89.7c-9.3,0-16.7-3.1-22.4-9.3c-5.6-6.2-8.4-14.6-8.4-25.1c0-10.5,2.8-18.9,8.4-25.2
		c5.6-6.3,13-9.5,22.3-9.5c6.2,0,11.8,1.6,16.8,4.7c4.9,3.1,8.1,7,9.3,11.7c0.3,0.8,0.4,1.6,0.4,2.4c0,1.5-0.4,2.7-1.3,3.6
		c-0.9,0.9-2,1.3-3.5,1.3c-1.2,0-2.2-0.3-3-0.9c-0.8-0.6-1.6-1.6-2.3-3c-3.5-6.6-8.9-9.9-16.3-9.9c-5.8,0-10.5,2.3-14.1,6.8
		c-3.6,4.5-5.4,10.5-5.4,17.9c0,7.6,1.8,13.6,5.4,18c3.6,4.5,8.3,6.7,14.1,6.7c3.9,0,7.1-0.8,9.8-2.5c2.6-1.6,4.8-4.1,6.6-7.4
		c0.8-1.5,1.6-2.5,2.3-3.1c0.7-0.6,1.7-0.8,3-0.8c1.5,0,2.6,0.4,3.5,1.3c0.9,0.9,1.3,2.1,1.3,3.5c0,0.8-0.2,1.7-0.5,2.8
		c-1.6,4.7-4.8,8.5-9.7,11.5C83.8,88.3,78.3,89.7,72.3,89.7z"/>
</g>
<g>
	<path class="st1" d="M79.6,120.6c-1.7,1.7-3.8,2.6-6.3,2.6c-2.5,0-4.6-0.9-6.3-2.6c-1.7-1.7-2.6-3.8-2.6-6.3c0-2.5,0.9-4.6,2.6-6.3
		c1.7-1.7,3.8-2.6,6.3-2.6c2.5,0,4.6,0.9,6.3,2.6c1.7,1.7,2.6,3.8,2.6,6.3C82.2,116.8,81.3,118.9,79.6,120.6z"/>
</g>
</svg>
