<?xml version="1.0" encoding="utf-8"?>
<!-- Generator: Adobe Illustrator 25.2.0, SVG Export Plug-In . SVG Version: 6.00 Build 0)  -->
<svg version="1.1" id="圖層_1" xmlns="http://www.w3.org/2000/svg" xmlns:xlink="http://www.w3.org/1999/xlink" x="0px" y="0px"
	 viewBox="0 0 48 48" style="enable-background:new 0 0 48 48;" xml:space="preserve">
<style type="text/css">
	.st0{fill:#204B95;}
</style>
<g>
	<path class="st0" d="M24,4.13L24,4.13C13.07,4.13,4.13,13.07,4.13,24v0c0,10.93,8.94,19.87,19.87,19.87h0
		c10.93,0,19.87-8.94,19.87-19.87v0C43.87,13.07,34.93,4.13,24,4.13z M24.76,38.46c-1.37,0-2.47-1.1-2.45-2.43
		c0.02-1.3,1.1-2.33,2.41-2.33s2.41,1.03,2.45,2.33C27.21,37.36,26.13,38.46,24.76,38.46z M27.32,13c-0.01,0-0.02,0-0.04,0
		c-4.6,0-8.34,3.3-8.34,7.37c0,4.07,3.73,7.37,8.34,7.37c0.01,0,0.02,0,0.04,0v3.46c-0.01,0-0.02,0-0.04,0
		c-6.77,0-12.25-4.85-12.25-10.84c0-5.99,5.48-10.84,12.25-10.84c0.01,0,0.02,0,0.04,0V13z"/>
</g>
</svg>
