<?xml version="1.0" encoding="utf-8"?>
<!-- Generator: Adobe Illustrator 25.2.0, SVG Export Plug-In . SVG Version: 6.00 Build 0)  -->
<svg version="1.1" id="圖層_1" xmlns="http://www.w3.org/2000/svg" xmlns:xlink="http://www.w3.org/1999/xlink" x="0px" y="0px"
	 viewBox="0 0 141.3 141.3" style="enable-background:new 0 0 141.3 141.3;" xml:space="preserve">
<style type="text/css">
	.st0{fill:#C6D9EB;}
	.st1{fill:#E36106;}
</style>
<path class="st0" d="M0,101.3V40C0,18,18,0,40,0l61.3,0c22,0,40,18,40,40v61.3c0,22-18,40-40,40H40C18,141.3,0,123.3,0,101.3z"/>
<g>
	<path class="st1" d="M98.2,75.8c-7.3,0-13.3-2.5-17.7-7.4c-4.5-4.9-6.7-11.5-6.7-19.8c0-8.3,2.2-14.9,6.7-19.9
		c4.4-5,10.3-7.5,17.6-7.5c4.9,0,9.4,1.2,13.3,3.7c3.9,2.5,6.4,5.6,7.4,9.2c0.2,0.6,0.3,1.3,0.3,1.9c0,1.2-0.3,2.1-1,2.8
		c-0.7,0.7-1.6,1-2.7,1c-0.9,0-1.7-0.2-2.4-0.7c-0.6-0.5-1.2-1.3-1.9-2.4c-2.8-5.2-7.1-7.8-12.9-7.8c-4.6,0-8.3,1.8-11.2,5.4
		c-2.8,3.6-4.2,8.3-4.2,14.2c0,6,1.4,10.8,4.2,14.3c2.8,3.5,6.5,5.3,11.2,5.3c3.1,0,5.7-0.7,7.7-2c2.1-1.3,3.8-3.3,5.2-5.9
		c0.6-1.2,1.3-2,1.8-2.4c0.6-0.4,1.4-0.7,2.3-0.7c1.2,0,2.1,0.4,2.8,1.1c0.7,0.7,1,1.6,1,2.8c0,0.6-0.1,1.4-0.4,2.2
		c-1.3,3.7-3.8,6.7-7.6,9.1C107.3,74.7,103,75.8,98.2,75.8z"/>
</g>
<g>
	<path class="st1" d="M40,116.3c-0.8,0.8-1.9,1.3-3.1,1.3c-1.2,0-2.3-0.4-3.1-1.3c-0.8-0.8-1.3-1.9-1.3-3.1s0.4-2.3,1.3-3.1
		c0.8-0.8,1.9-1.3,3.1-1.3c1.2,0,2.3,0.4,3.1,1.3c0.8,0.8,1.3,1.9,1.3,3.1S40.9,115.5,40,116.3z"/>
</g>
</svg>
