<?xml version="1.0" encoding="utf-8"?>
<!-- Generator: Adobe Illustrator 25.2.0, SVG Export Plug-In . SVG Version: 6.00 Build 0)  -->
<svg version="1.1" id="圖層_1" xmlns="http://www.w3.org/2000/svg" xmlns:xlink="http://www.w3.org/1999/xlink" x="0px" y="0px"
	 viewBox="0 0 1290.16 254.81" style="enable-background:new 0 0 1290.16 254.81;" xml:space="preserve">
<style type="text/css">
	.st0{fill:#204B95;}
</style>
<g>
	<path class="st0" d="M449.01,12.28v98.39h-89.18c3.6,4.51,5.75,10.22,5.75,16.43c0,6.12-2.09,11.75-5.59,16.23h89.02v99.21h40.73
		l-0.99-178.58l56.03,107.89V101.7l-51.79-89.42H449.01z"/>
	<polygon class="st0" points="603.37,12.28 604.36,197.41 559.25,108.26 557.25,178.4 593.86,241.72 644.11,241.72 644.11,12.28 	
		"/>
</g>
<g>
	<path class="st0" d="M1223.11,124.24L1223.11,124.24c-32.45,0-59,26.55-59,59v0c0,32.45,26.55,59,59,59h0c32.45,0,59-26.55,59-59v0
		C1282.11,150.78,1255.56,124.24,1223.11,124.24z M1225.37,226.17c-4.07,0-7.32-3.27-7.27-7.21c0.05-3.85,3.25-6.91,7.15-6.91
		c3.9,0,7.15,3.06,7.27,6.91C1232.64,222.9,1229.44,226.17,1225.37,226.17z M1232.95,150.58c-0.04,0-0.07,0-0.11,0
		c-13.67,0-24.75,9.8-24.75,21.89s11.08,21.89,24.75,21.89c0.04,0,0.07,0,0.11,0v10.28c-0.04,0-0.07,0-0.11,0
		c-20.09,0-36.37-14.4-36.37-32.17s16.28-32.17,36.37-32.17c0.04,0,0.07,0,0.11,0V150.58z"/>
</g>
<polygon class="st0" points="693.85,13.03 655.62,13.03 712.82,242 753.62,242 "/>
<polygon class="st0" points="970.69,208.34 970.69,45.04 1063.79,45.04 1063.79,12.38 932.6,12.38 932.6,241.82 1067.12,241.82 
	1067.12,208.34 "/>
<polygon class="st0" points="894.32,12.38 932.55,12.38 875.34,241.82 834.55,241.82 "/>
<path class="st0" d="M1087.01,12.79v92.41h-92.28c3.55,4.49,5.67,10.16,5.67,16.33s-2.12,11.84-5.67,16.33h92.28v104.37h39.88V12.79
	H1087.01z"/>
<g>
	<path class="st0" d="M10.52,126.02c0,62.82,58.8,113.74,131.34,113.74c0.13,0,0.26-0.01,0.39-0.01v-36.34
		c-0.13,0-0.26,0.01-0.39,0.01c-49.36,0-89.38-34.65-89.38-77.4c0-42.75,40.01-77.4,89.38-77.4c0.13,0,0.26,0.01,0.39,0.01V12.28
		c-0.13,0-0.26-0.01-0.39-0.01C69.32,12.28,10.52,63.2,10.52,126.02z"/>
	<path class="st0" d="M332.69,208.65V45.35h93.09V12.69H294.6v91.9h-28.44c4.96,4.8,8.04,11.51,8.04,18.95
		c0,6.63-2.45,12.68-6.49,17.32h26.89v101.27h134.52v-33.48H332.69z"/>
	<path class="st0" d="M200.05,104.88v-92.2H162.5v229.44h37.55V140.39h27.66c-3.89-4.6-6.24-10.54-6.24-17.03
		c0-7.19,2.88-13.71,7.55-18.47H200.05z"/>
</g>
<circle class="st0" cx="796.64" cy="205.1" r="24.65"/>
<path class="st0" d="M847.25,12.38H745.04v32.66h45.12l-20.38,125.38c6.87-6.93,16.39-11.22,26.92-11.22
	c9.97,0,19.03,3.85,25.8,10.14l-20.15-124.3h44.9V12.38z"/>
</svg>
