<?xml version="1.0" encoding="utf-8"?>
<!-- Generator: Adobe Illustrator 25.2.0, SVG Export Plug-In . SVG Version: 6.00 Build 0)  -->
<svg version="1.1" id="圖層_1" xmlns="http://www.w3.org/2000/svg" xmlns:xlink="http://www.w3.org/1999/xlink" x="0px" y="0px"
	 viewBox="0 0 681 523" style="enable-background:new 0 0 681 523;" xml:space="preserve">
<style type="text/css">
	.st0{fill:#204B95;}
	.st1{fill:#F08223;}
	.st2{fill:#FFFFFF;}
</style>
<g>
	<g>
		<path class="st0" d="M462.2,22.02v98.39h-50.18c3.6,4.51,5.75,10.22,5.75,16.43c0,6.12-2.09,11.75-5.59,16.23h50.02v99.21h40.73
			L501.94,73.7l56.03,107.89v-70.15l-51.79-89.42H462.2z"/>
		<polygon class="st1" points="616.56,22.02 617.55,207.15 572.44,118 570.44,188.15 607.05,251.46 657.29,251.46 657.29,22.02 		
			"/>
	</g>
	<g>
		<g>
			<path class="st0" d="M598.3,500.98L598.3,500.98c-32.45,0-59-26.55-59-59v0c0-32.45,26.55-59,59-59h0c32.45,0,59,26.55,59,59v0
				C657.29,474.43,630.75,500.98,598.3,500.98z"/>
		</g>
		<g>
			<path class="st2" d="M607.71,477.7c0.12,3.94-3.08,7.21-7.15,7.21s-7.32-3.27-7.27-7.21c0.05-3.85,3.25-6.91,7.15-6.91
				C604.34,470.8,607.59,473.85,607.71,477.7z"/>
			<path class="st2" d="M608.14,453.11c-0.04,0-0.07,0-0.11,0c-13.67,0-24.75-9.8-24.75-21.89c0-12.09,11.08-21.89,24.75-21.89
				c0.04,0,0.07,0,0.11,0v-10.28c-0.04,0-0.07,0-0.11,0c-20.09,0-36.37,14.4-36.37,32.17c0,17.77,16.28,32.17,36.37,32.17
				c0.04,0,0.07,0,0.11,0V453.11z"/>
		</g>
	</g>
	<polygon class="st0" points="62.03,271.77 23.81,271.77 81.01,500.74 121.81,500.74 	"/>
	<polygon class="st0" points="345.88,467.09 345.88,303.79 438.97,303.79 438.97,271.13 307.79,271.13 307.79,500.57 442.31,500.57 
		442.31,467.09 	"/>
	<polygon class="st0" points="269.51,271.13 307.73,271.13 250.53,500.57 209.73,500.57 	"/>
	<path class="st0" d="M462.2,271.54v92.41h-51.28c3.55,4.49,5.67,10.16,5.67,16.33s-2.12,11.84-5.67,16.33h51.28v104.37h39.88
		V271.54H462.2z"/>
	<g>
		<path class="st0" d="M23.71,135.77c0,62.82,58.8,113.74,131.34,113.74c0.13,0,0.26-0.01,0.39-0.01v-36.34
			c-0.13,0-0.26,0.01-0.39,0.01c-49.36,0-89.38-34.65-89.38-77.4c0-42.75,40.01-77.4,89.38-77.4c0.13,0,0.26,0.01,0.39,0.01V22.03
			c-0.13,0-0.26-0.01-0.39-0.01C82.51,22.02,23.71,72.95,23.71,135.77z"/>
		<path class="st0" d="M345.88,218.39V55.09h93.09V22.43H307.79v91.9h-28.44c4.96,4.8,8.04,11.51,8.04,18.95
			c0,6.63-2.45,12.68-6.49,17.32h26.89v101.27h134.52v-33.48H345.88z"/>
		<path class="st0" d="M213.24,114.63v-92.2h-37.55v229.44h37.55V150.13h27.66c-3.89-4.6-6.24-10.54-6.24-17.03
			c0-7.19,2.88-13.71,7.55-18.47H213.24z"/>
	</g>
	<circle class="st1" cx="164.83" cy="463.85" r="24.65"/>
	<path class="st0" d="M215.44,321.11H113.23v32.66h45.12l-20.38,83.38c6.87-6.93,16.39-11.22,26.92-11.22
		c9.97,0,19.03,3.85,25.8,10.14l-20.15-82.3h44.9V321.11z"/>
</g>
</svg>
